<?xml version="1.0" encoding="UTF-8" standalone="no"?>
<!-- Created with Inkscape (http://www.inkscape.org/) -->

<svg
   xmlns:dc="http://purl.org/dc/elements/1.1/"
   xmlns:cc="http://creativecommons.org/ns#"
   xmlns:rdf="http://www.w3.org/1999/02/22-rdf-syntax-ns#"
   xmlns:svg="http://www.w3.org/2000/svg"
   xmlns="http://www.w3.org/2000/svg"
   xmlns:sodipodi="http://sodipodi.sourceforge.net/DTD/sodipodi-0.dtd"
   xmlns:inkscape="http://www.inkscape.org/namespaces/inkscape"
   width="16"
   height="16"
   viewBox="0 0 16 16"
   id="svg2"
   version="1.1"
   inkscape:version="0.91 r13725"
   sodipodi:docname="RG - Copy.svg"
   inkscape:export-filename="C:\Users\Stu\Google Drive\Projects\Website\stupoole.github.io\assets\img\ORCID.png"
   inkscape:export-xdpi="90"
   inkscape:export-ydpi="90">
  <defs
     id="defs4" />
  <sodipodi:namedview
     id="base"
     pagecolor="#000000"
     bordercolor="#666666"
     borderopacity="1.0"
     inkscape:pageopacity="0"
     inkscape:pageshadow="2"
     inkscape:zoom="45.254834"
     inkscape:cx="4.8832658"
     inkscape:cy="7.2564193"
     inkscape:document-units="px"
     inkscape:current-layer="layer1"
     showgrid="false"
     units="px"
     inkscape:window-width="1920"
     inkscape:window-height="1057"
     inkscape:window-x="-8"
     inkscape:window-y="-8"
     inkscape:window-maximized="1" />
  <metadata
     id="metadata7">
    <rdf:RDF>
      <cc:Work
         rdf:about="">
        <dc:format>image/svg+xml</dc:format>
        <dc:type
           rdf:resource="http://purl.org/dc/dcmitype/StillImage" />
        <dc:title></dc:title>
      </cc:Work>
    </rdf:RDF>
  </metadata>
  <g
     inkscape:label="Layer 1"
     inkscape:groupmode="layer"
     id="layer1"
     transform="translate(0,-1036.3621)">
    <path
       style="opacity:1;fill:#ffffff;fill-opacity:1;fill-rule:nonzero;stroke:#ffffff;stroke-width:0.02209709;stroke-linecap:square;stroke-linejoin:bevel;stroke-miterlimit:4;stroke-dasharray:none;stroke-opacity:1"
       d="M 7.2574718,15.863297 C 6.0987892,15.763429 4.8549844,15.347271 3.8434719,14.721024 1.764386,13.433821 0.42744512,11.329561 0.12767217,8.8725919 0.08320533,8.5081371 0.08978173,7.4065492 0.13862138,7.0385337 0.33335471,5.571183 0.85790457,4.312746 1.766044,3.1342173 2.020777,2.80364 2.7004956,2.1152426 3.0369282,1.8471058 4.0210178,1.0627867 5.1964975,0.51117032 6.4031681,0.26743316 7.0139464,0.14406117 7.2381061,0.12371683 7.9866757,0.12371683 c 0.7318526,0 0.9625782,0.0199742 1.5357475,0.13295153 2.0615228,0.40634647 3.8866508,1.62816964 5.0473348,3.37891394 0.70963,1.0703864 1.109703,2.1613497 1.276275,3.4802912 0.03929,0.3111303 0.03934,1.4561048 6.7e-5,1.767767 -0.125929,0.9994256 -0.377632,1.8342325 -0.809494,2.6847965 -1.234567,2.431509 -3.66006,4.069036 -6.3649206,4.29716 -0.310996,0.02623 -1.0980609,0.02495 -1.4142136,-0.0023 z m -2.6406019,-6.703443 0,-3.3698057 -0.6960582,0 -0.6960583,0 0,3.3698057 0,3.369806 0.6960583,0 0.6960582,0 0,-3.369806 z m 5.1154756,3.347296 c 1.0397495,-0.07505 1.8109495,-0.304634 2.4709155,-0.735579 1.007634,-0.657966 1.69109,-1.8356224 1.828727,-3.1510616 0.03618,-0.3458123 0.01333,-1.1061887 -0.0429,-1.4272961 C 13.877165,6.5539983 13.668883,6.0065483 13.363785,5.5496477 12.67552,4.5189361 11.690364,3.9347892 10.30687,3.7370552 9.7825494,3.6621174 9.3716333,3.6466309 7.907578,3.6466309 l -1.4124557,0 0,4.4415144 0,4.4415147 1.463932,-8.9e-5 c 0.8051626,-4.4e-5 1.6031437,-0.01014 1.7732912,-0.02242 l 0,-1e-6 z m -5.0491843,-8.2086551 0,-0.7181553 -0.7623495,0 -0.7623495,0 0,0.7181553 0,0.7181553 0.7623495,0 0.7623495,0 0,-0.7181553 z"
       id="path6061"
       inkscape:connector-curvature="0"
       transform="translate(0,1036.3621)" />
    <path
       style="opacity:1;fill:#ffffff;fill-opacity:1;fill-rule:nonzero;stroke:none;stroke-width:0.17;stroke-linecap:square;stroke-linejoin:bevel;stroke-miterlimit:4;stroke-dasharray:none;stroke-opacity:1"
       d="m 7.95353,8.091472 0,-3.1632101 0.4585146,2.003e-4 c 0.5723328,2.5e-4 1.2206291,0.033495 1.5277231,0.078342 0.7686543,0.112253 1.3704203,0.3860567 1.8175583,0.82699 0.392757,0.3873059 0.627711,0.8698739 0.742442,1.5248841 0.05715,0.3262726 0.0507,1.1858512 -0.01145,1.5254099 -0.171591,0.9375215 -0.631043,1.5710194 -1.430146,1.9719014 -0.547561,0.274692 -1.0900953,0.364625 -2.3257187,0.38552 l -0.7789223,0.01317 0,-3.16321 z"
       id="path6063"
       inkscape:connector-curvature="0"
       transform="translate(0,1036.3621)" />
  </g>
</svg>
