<?xml version="1.0" encoding="UTF-8" standalone="no"?>
<!-- Created with Inkscape (http://www.inkscape.org/) -->

<svg
   xmlns:dc="http://purl.org/dc/elements/1.1/"
   xmlns:cc="http://creativecommons.org/ns#"
   xmlns:rdf="http://www.w3.org/1999/02/22-rdf-syntax-ns#"
   xmlns:svg="http://www.w3.org/2000/svg"
   xmlns="http://www.w3.org/2000/svg"
   xmlns:sodipodi="http://sodipodi.sourceforge.net/DTD/sodipodi-0.dtd"
   xmlns:inkscape="http://www.inkscape.org/namespaces/inkscape"
   width="16"
   height="16"
   viewBox="0 0 16 16"
   id="svg4711"
   version="1.1"
   inkscape:version="0.91 r13725"
   sodipodi:docname="research.svg"
   inkscape:export-filename="C:\Users\Stu\Google Drive\Projects\Website\stupoole.github.io\assets\img\research.png"
   inkscape:export-xdpi="90"
   inkscape:export-ydpi="90">
  <defs
     id="defs4713" />
  <sodipodi:namedview
     id="base"
     pagecolor="#000000"
     bordercolor="#666666"
     borderopacity="1.0"
     inkscape:pageopacity="0"
     inkscape:pageshadow="2"
     inkscape:zoom="6.814536"
     inkscape:cx="17.172593"
     inkscape:cy="3.5355339"
     inkscape:document-units="px"
     inkscape:current-layer="layer1"
     showgrid="false"
     units="px"
     inkscape:window-width="1920"
     inkscape:window-height="1057"
     inkscape:window-x="-8"
     inkscape:window-y="-8"
     inkscape:window-maximized="1" />
  <metadata
     id="metadata4716">
    <rdf:RDF>
      <cc:Work
         rdf:about="">
        <dc:format>image/svg+xml</dc:format>
        <dc:type
           rdf:resource="http://purl.org/dc/dcmitype/StillImage" />
        <dc:title></dc:title>
      </cc:Work>
    </rdf:RDF>
  </metadata>
  <g
     inkscape:label="Layer 1"
     inkscape:groupmode="layer"
     id="layer1"
     transform="translate(0,-1036.3622)">
    <path
       style="fill:#ffffff;fill-opacity:1"
       d="m 5.0575007,1050.8898 c -1.3730691,-0.4434 -1.9734789,-2.297 -1.5021739,-4.6377 0.1045974,-0.5195 0.2288227,-0.9842 0.2760633,-1.0327 0.047241,-0.048 0.1765989,0.113 0.2874643,0.3588 0.1547185,0.3432 0.1820374,0.5731 0.1175194,0.9891 -0.1456275,0.9393 -0.076454,2.1537 0.1517171,2.6636 0.2955298,0.6603 0.5952997,0.8865 1.2595765,0.9503 0.488156,0.047 0.6842099,0 1.3806563,-0.3469 0.4464403,-0.2209 1.0149686,-0.5759 1.2633961,-0.7888 0.3433287,-0.2943 0.5999719,-0.4072 1.0698307,-0.4705 l 0.6181421,-0.083 -0.28153,0.3054 c -1.3612936,1.4765 -3.5260217,2.4528 -4.6406619,2.0927 z m 4.9486013,-0.017 c -0.2332304,-0.055 -0.6329142,-0.2064 -0.8881918,-0.3367 l -0.4641381,-0.2368 0.2754871,-0.2755 0.2754815,-0.2755 0.5000929,0.2269 c 0.6785704,0.3078 1.4496394,0.3026 1.8504184,-0.013 0.37252,-0.293 0.727135,-1.0287 0.730552,-1.5154 0.0029,-0.3791 0.129266,-0.5299 0.554804,-0.6606 l 0.270793,-0.083 -0.07287,0.7169 c -0.04413,0.4345 -0.195226,0.961 -0.38341,1.3364 -0.261303,0.5211 -0.407467,0.6684 -0.92195,0.9289 -0.630881,0.3196 -0.996822,0.3593 -1.727068,0.1873 z m -3.0500851,-1.8869 c -0.1641378,-0.1714 -0.2984276,-0.3498 -0.2984276,-0.3967 0,-0.1034 1.0317389,0.032 1.1629697,0.1531 0.051216,0.047 -0.055191,0.1913 -0.2364908,0.3204 l -0.3296236,0.2347 z m -0.5799639,-0.8728 c -0.1238739,-0.03 -0.5926267,-0.132 -1.0416767,-0.2268 -0.7840891,-0.1653 -0.8164488,-0.185 -0.8164488,-0.4957 0,-0.1779 0.042056,-0.3495 0.093519,-0.3813 0.051446,-0.031 0.3681593,0.015 0.7038378,0.1039 4.0282056,1.0677 9.3378857,-0.4389 9.3378857,-2.6495 0,-0.9068 -1.165672,-1.9643 -2.719136,-2.467 -0.274767,-0.089 -0.510318,-0.2836 -0.712214,-0.5887 l -0.301666,-0.4558 0.26176,0.075 c 1.729884,0.4923 2.032747,0.6288 2.988873,1.3475 0.774255,0.5821 1.270677,1.3984 1.270677,2.0895 0,1.378 -1.637989,2.7283 -4.110403,3.3886 -0.711252,0.19 -1.303932,0.2484 -2.8153462,0.2779 -1.0529394,0.021 -2.0157821,0.013 -2.1396617,-0.018 z m -3.8288679,-1.3717 c -1.3869474,-1.0165 -1.806017,-2.0318 -1.2993508,-3.1478 0.5112405,-1.1263 1.8136791,-1.9549 4.0386159,-2.5694 l 0.2617643,-0.072 -0.2942278,0.4446 c -0.2354883,0.3558 -0.4503923,0.5058 -1.076508,0.7515 -1.8631895,0.731 -2.74339,1.9275 -2.1962985,2.9854 0.091289,0.1765 0.3855979,0.5161 0.6540221,0.7545 0.4356959,0.3871 0.4813003,0.4739 0.4252396,0.8087 l -0.062801,0.3749 z m 2.8050677,-0.022 c -0.2919062,-0.1181 -1.0440157,-1.5517 -1.4410493,-2.7468 -0.1617988,-0.4871 -0.2941875,-0.9478 -0.2941875,-1.0237 0,-0.1237 0.5486814,-0.4548 0.6221059,-0.3755 0.016477,0.018 0.1351309,0.3872 0.2637116,0.8207 0.245766,0.8288 0.9939004,2.4611 1.3700618,2.9893 0.1218978,0.1713 0.2216272,0.3415 0.2216272,0.3784 0,0.096 -0.4651867,0.069 -0.7422697,-0.043 z m 5.0215942,0.054 c 0,-0.043 0.104096,-0.2258 0.231322,-0.4044 0.365769,-0.5137 1.193867,-2.3459 1.402325,-3.1027 l 0.190044,-0.6899 0.326904,0.1235 c 0.179797,0.067 0.326905,0.1824 0.326905,0.2547 0,0.4787 -1.059898,3.0207 -1.482926,3.5566 -0.149926,0.1899 -0.994574,0.4125 -0.994574,0.2622 z m 1.806541,-0.6591 c 0.006,-0.3081 0.390921,-1.0428 0.475032,-0.9067 0.03456,0.055 0.09612,0.279 0.136773,0.4957 0.06824,0.3638 0.04741,0.404 -0.27131,0.5243 -0.319404,0.1206 -0.344867,0.1121 -0.340495,-0.1133 z m -4.8482616,-0.1029 c -0.8676587,-0.5904 -1.1130041,-1.4648 -0.6524205,-2.3248 0.3352695,-0.626 0.8494366,-0.9127 1.6368555,-0.9127 0.5225784,0 0.6458585,0.048 1.0426211,0.4065 0.7765895,0.7015 0.8556025,1.6396 0.2075071,2.4635 -0.5020978,0.6383 -1.5769865,0.8151 -2.2345632,0.3675 z m -2.3954174,-2.597 -0.173488,-0.5092 0.6509342,-0.9948 c 0.3580141,-0.5471 0.915268,-1.2864 1.2383413,-1.6429 l 0.5874014,-0.6482 0.328218,0.1939 c 0.1805222,0.1066 0.3282238,0.223 0.3282238,0.2587 0,0.036 -0.2326827,0.2909 -0.5170765,0.567 -0.6232812,0.6052 -1.4184775,1.6926 -1.9088111,2.6104 l -0.360261,0.6742 z m 6.036361,-0.2183 c -0.833491,-1.6759 -2.4894841,-3.4412 -3.8554675,-4.1098 -0.8567703,-0.4194 -1.7591508,-0.4742 -2.1915226,-0.133 -0.3873666,0.3057 -0.7400979,1.0349 -0.7435199,1.5373 -0.00173,0.2868 -0.072169,0.3991 -0.3347222,0.5349 -0.1827344,0.094 -0.3601053,0.1718 -0.3941474,0.1718 -0.1212122,0 -0.059269,-0.8739 0.099286,-1.4008 0.4737879,-1.5743 1.6396726,-2.1726 3.2044518,-1.6446 1.510176,0.5097 3.0454995,1.8419 4.2629628,3.6991 l 0.686923,1.0479 -0.170556,0.5006 c -0.09381,0.2752 -0.180257,0.5005 -0.192113,0.5005 -0.01186,0 -0.179064,-0.3167 -0.371575,-0.7039 z m -3.418723,-2.1635 c 0.4686434,-0.4835 0.8834728,-0.472 1.3942008,0.039 l 0.3511352,0.3512 -1.0616042,0 -1.0616042,0 z m 5.043618,-0.013 c -0.237717,-0.1289 -0.31026,-0.2523 -0.312161,-0.5305 -0.0034,-0.4958 -0.355048,-1.2301 -0.730552,-1.5255 -0.381594,-0.3002 -0.984769,-0.318 -1.8224304,-0.055 -0.5947185,0.1874 -0.6084529,0.1866 -0.8477899,-0.053 l -0.2432769,-0.2433 0.6689719,-0.31 c 0.9435153,-0.4372 1.9584953,-0.4421 2.6082253,-0.013 0.581657,0.3845 1.016547,1.2421 1.116438,2.2017 0.07824,0.7516 0.04678,0.7895 -0.437425,0.5268 z"
       id="path5270"
       inkscape:connector-curvature="0"
       sodipodi:nodetypes="sssssssssscsssscccsscscsssssscscssssssssscssssssssscssssscsssscssssssscsssssssssssssssccsscssssccssscssssscssssscccsscssscssss" />
  </g>
</svg>
