<?xml version="1.0" encoding="UTF-8" standalone="no"?>
<!-- Created with Inkscape (http://www.inkscape.org/) -->

<svg
   xmlns:dc="http://purl.org/dc/elements/1.1/"
   xmlns:cc="http://creativecommons.org/ns#"
   xmlns:rdf="http://www.w3.org/1999/02/22-rdf-syntax-ns#"
   xmlns:svg="http://www.w3.org/2000/svg"
   xmlns="http://www.w3.org/2000/svg"
   xmlns:sodipodi="http://sodipodi.sourceforge.net/DTD/sodipodi-0.dtd"
   xmlns:inkscape="http://www.inkscape.org/namespaces/inkscape"
   width="16"
   height="16"
   viewBox="0 0 16 16"
   id="svg2"
   version="1.1"
   inkscape:version="0.91 r13725"
   sodipodi:docname="RG.svg"
   inkscape:export-filename="C:\Users\Stu\Google Drive\Projects\Website\stupoole.github.io\assets\img\RG.png"
   inkscape:export-xdpi="90"
   inkscape:export-ydpi="90">
  <defs
     id="defs4" />
  <sodipodi:namedview
     id="base"
     pagecolor="#000000"
     bordercolor="#666666"
     borderopacity="1.0"
     inkscape:pageopacity="0"
     inkscape:pageshadow="2"
     inkscape:zoom="32"
     inkscape:cx="0.9825699"
     inkscape:cy="3.9516853"
     inkscape:document-units="px"
     inkscape:current-layer="layer1"
     showgrid="false"
     units="px"
     inkscape:window-width="1920"
     inkscape:window-height="1057"
     inkscape:window-x="-8"
     inkscape:window-y="-8"
     inkscape:window-maximized="1" />
  <metadata
     id="metadata7">
    <rdf:RDF>
      <cc:Work
         rdf:about="">
        <dc:format>image/svg+xml</dc:format>
        <dc:type
           rdf:resource="http://purl.org/dc/dcmitype/StillImage" />
        <dc:title></dc:title>
      </cc:Work>
    </rdf:RDF>
  </metadata>
  <g
     inkscape:label="Layer 1"
     inkscape:groupmode="layer"
     id="layer1"
     transform="translate(0,-1036.3621)">
    <path
       style="fill:none;fill-rule:evenodd;stroke:#ffffff;stroke-width:0.1;stroke-linecap:square;stroke-linejoin:bevel;stroke-miterlimit:4;stroke-dasharray:none;stroke-opacity:1"
       d="m 2.2525204,1041.4984 1.1719755,0.8562 0.066495,7.0485 -1.2717182,0.8893 3.9398328,-0.033 -1.2634063,-0.8728 0.024935,-3.1086 0.7563814,0.041 2.2691441,3.2499 1.0805449,0.7813 c 0.5955494,-0.028 1.2352563,0.04 1.7870543,-0.1413 -0.396842,-0.1517 -0.804099,-0.293 -1.0722324,-0.5735 l -2.6265551,-3.358 1.1969112,-0.7979 c 0.283568,-0.3511 0.4984982,-0.6977 0.6067675,-1.1803 0.01367,-0.6539 -0.1666248,-1.341 -0.4405298,-1.9949 -0.5898566,-0.4795 -0.8981525,-0.677 -1.4545797,-0.7813 z"
       id="path4695"
       inkscape:connector-curvature="0"
       sodipodi:nodetypes="cccccccccccccccccc" />
    <path
       style="fill:none;fill-rule:evenodd;stroke:#ffffff;stroke-width:0.2;stroke-linecap:square;stroke-linejoin:bevel;stroke-miterlimit:4;stroke-dasharray:none;stroke-opacity:1"
       d="m 4.9040112,1042.3794 0.00831,3.0007 1.3714607,0.025 c 0.4792259,-0.1428 0.952302,-0.2497 1.138728,-0.7647 0.1325267,-0.2804 0.23536,-0.6374 0.1911733,-1.1387 -0.066972,-0.7122 -0.6092943,-1.0308 -1.2550943,-1.0972 z"
       id="path4697"
       inkscape:connector-curvature="0"
       sodipodi:nodetypes="ccccccc" />
    <path
       style="fill:#ffffff;fill-rule:evenodd;stroke:#ffffff;stroke-width:0.4;stroke-linecap:square;stroke-linejoin:bevel;stroke-miterlimit:4;stroke-dasharray:none;stroke-opacity:1;fill-opacity:1"
       d="m 12.700558,1039.6615 0.598455,0 0.03325,-0.5652 c -0.372032,-0.3333 -0.873514,-0.6317 -1.695624,-0.6566 -0.770534,0.1407 -1.240661,0.4468 -1.413021,0.8312 -0.3506713,1.8418 -0.208581,2.1669 -0.01662,3.2167 0.209628,0.327 0.438356,0.5501 0.731445,0.6649 0.537138,0.1187 1.104437,0.19 1.795367,0.067 0.331182,-0.2573 0.662998,-0.5139 0.864436,-0.9226 l 0.0083,-1.4462 -1.246783,-0.05 -0.689886,0.2244 1.097169,0.266 c 0.08393,0.3383 0.0045,0.5256 -0.03325,0.8395 -0.143569,0.2869 -0.24338,0.4581 -0.847812,0.4571 -0.514868,-0.074 -0.669195,-0.2873 -0.914307,-0.4654 -0.186699,-0.6774 -0.181195,-1.446 -0.08312,-2.211 0.102531,-0.3598 0.459946,-0.5091 0.781317,-0.6483 0.500112,-4e-4 0.966293,0.028 1.030672,0.3981 z"
       id="path4699"
       inkscape:connector-curvature="0"
       sodipodi:nodetypes="ccccccccccccccccccc" />
    <path
       style="opacity:1;fill:#ffffff;fill-opacity:1;fill-rule:nonzero;stroke:#ffffff;stroke-width:0.103;stroke-linecap:square;stroke-linejoin:bevel;stroke-miterlimit:4;stroke-dasharray:none;stroke-opacity:1"
       d="M 8.5138199,13.539257 7.9981949,13.164931 6.856163,11.53006 5.7141311,9.8951897 5.3099549,9.8726478 c -0.2222969,-0.012398 -0.4133871,-0.012398 -0.4246448,0 -0.011258,0.012398 -0.030316,0.7269982 -0.042351,1.5880002 -0.018932,1.354342 -0.015701,1.57164 0.023958,1.611299 0.025212,0.02521 0.2805896,0.206693 0.5675052,0.403291 l 0.5216644,0.357452 -0.8796016,0.0083 c -0.483781,0.0046 -1.2677402,0.0046 -1.7421316,0 l -0.8625298,-0.0083 0.5401833,-0.375 0.5401834,-0.375 -0.019421,-2.625 C 3.5220876,9.0139397 3.5045338,7.408793 3.4937605,6.8906971 L 3.4741727,5.9487045 3.2205588,5.7620819 C 3.0810712,5.6594395 2.8503142,5.4905695 2.7077656,5.3868151 l -0.2591793,-0.1886444 2.2904293,0.01565 c 2.5252368,0.017255 2.4762093,0.013552 2.8874727,0.21811 0.1221241,0.060743 0.3537678,0.2109198 0.5147644,0.3337254 l 0.2927206,0.2232831 0.1335872,0.385293 C 8.718909,6.8107533 8.8132355,7.2396295 8.8441455,7.6317834 8.8755643,8.0303957 8.7790755,8.318089 8.4466171,8.8170647 8.295843,9.0433559 8.2695183,9.0653428 7.6833883,9.4545337 7.2587036,9.7365247 7.0763199,9.8750022 7.0763199,9.9154587 c 0,0.067158 2.5417153,3.3354853 2.7131572,3.4887793 0.1140562,0.101983 0.6962419,0.409886 0.7866239,0.416025 0.0259,0.0018 -0.0021,0.01689 -0.06228,0.03362 -0.06016,0.01673 -0.41875,0.03701 -0.7968751,0.04506 l -0.6875,0.01464 -0.515625,-0.374328 z M 6.6107496,9.0087715 C 6.9529418,8.8931031 7.0526115,8.8400534 7.2254355,8.6816015 7.5411527,8.3921403 7.7363474,7.7106801 7.6700486,7.1293784 7.6067861,6.5747003 7.3140627,6.2335057 6.7418383,6.0474696 6.5583799,5.9878254 4.9288718,5.9286563 4.8665952,5.9793776 c -0.051249,0.04174 -0.017383,3.0602183 0.034725,3.0950211 0.018906,0.012628 0.3516587,0.023174 0.7394501,0.023437 0.6941947,4.719e-4 0.7091634,-9.031e-4 0.9699794,-0.089065 z"
       id="path4730"
       inkscape:connector-curvature="0"
       transform="translate(0,1036.3621)" />
  </g>
</svg>
