<?xml version="1.0" encoding="UTF-8" standalone="no"?>
<!-- Created with Inkscape (http://www.inkscape.org/) -->

<svg
   xmlns:dc="http://purl.org/dc/elements/1.1/"
   xmlns:cc="http://creativecommons.org/ns#"
   xmlns:rdf="http://www.w3.org/1999/02/22-rdf-syntax-ns#"
   xmlns:svg="http://www.w3.org/2000/svg"
   xmlns="http://www.w3.org/2000/svg"
   xmlns:sodipodi="http://sodipodi.sourceforge.net/DTD/sodipodi-0.dtd"
   xmlns:inkscape="http://www.inkscape.org/namespaces/inkscape"
   width="16"
   height="16"
   viewBox="0 0 16 16"
   id="svg2"
   version="1.1"
   inkscape:version="0.91 r13725"
   inkscape:export-filename="C:\Users\Stu\Google Drive\Projects\Website\stupoole.github.io\assets\img\scholar.png"
   inkscape:export-xdpi="90"
   inkscape:export-ydpi="90"
   sodipodi:docname="scholar.svg">
  <defs
     id="defs4" />
  <sodipodi:namedview
     id="base"
     pagecolor="#000000"
     bordercolor="#666666"
     borderopacity="1.0"
     inkscape:pageopacity="0"
     inkscape:pageshadow="2"
     inkscape:zoom="27.306667"
     inkscape:cx="9.0820313"
     inkscape:cy="4.9316407"
     inkscape:document-units="px"
     inkscape:current-layer="layer1"
     showgrid="false"
     units="px"
     inkscape:window-width="1920"
     inkscape:window-height="1057"
     inkscape:window-x="-8"
     inkscape:window-y="-8"
     inkscape:window-maximized="1" />
  <metadata
     id="metadata7">
    <rdf:RDF>
      <cc:Work
         rdf:about="">
        <dc:format>image/svg+xml</dc:format>
        <dc:type
           rdf:resource="http://purl.org/dc/dcmitype/StillImage" />
        <dc:title></dc:title>
      </cc:Work>
    </rdf:RDF>
  </metadata>
  <g
     inkscape:label="Layer 1"
     inkscape:groupmode="layer"
     id="layer1"
     transform="translate(0,-1036.3622)">
    <path
       style="fill:#ffffff;fill-rule:evenodd;stroke:#ffffff;stroke-width:0.2;stroke-linecap:butt;stroke-linejoin:miter;stroke-opacity:1;stroke-miterlimit:4;stroke-dasharray:none;fill-opacity:1"
       d="m 1.4282227,1041.7421 3.918457,-4.065 8.3129883,0.073 -0.732422,0.769 0.03662,0.9156 0.32959,0.4028 0,4.2847 -0.439453,0.3662 -0.585938,-0.4029 0.07324,-4.2846 0.292968,-0.4029 -0.109863,-0.5127 -1.794433,1.7945 0.256347,0.8423 -0.109863,0.9521 -0.65918,1.062 -0.8056639,0.6592 -0.5859375,0.8423 0.4028321,0.5127 1.7944333,1.4648 0.476074,1.1353 -0.07324,1.6113 -1.098633,1.1719 -1.6479467,0.8789 -1.9042969,0.1098 -1.8310547,-0.3662 -1.4648438,-1.2085 -0.073242,-1.6845 1.0253907,-1.3184 1.3549804,-0.6592 1.3549805,-0.1098 0.6591797,-0.1099 -0.5493164,-0.8789 0.2929688,-0.9155 -1.5014649,-0.1099 -1.0986328,-0.6592 -0.5493164,-0.9155 -0.2563477,-1.1353 z"
       id="path4149"
       inkscape:connector-curvature="0" />
    <path
       style="fill:#000000;fill-rule:evenodd;stroke:#ffffff;stroke-width:0.2;stroke-linecap:butt;stroke-linejoin:miter;stroke-opacity:1;stroke-miterlimit:4;stroke-dasharray:none;fill-opacity:1"
       d="m 5.6762696,1041.0463 0.3662109,-1.1719 0.769043,-0.4394 0.8422851,0 0.8789063,0.5126 0.5493164,1.1719 0.2929687,1.5747 -0.3295898,0.9156 -0.8056641,0.476 -1.2084961,-0.073 -0.7324218,-0.7691 -0.366211,-0.9521 z"
       id="path4151"
       inkscape:connector-curvature="0" />
    <path
       style="fill:#000000;fill-rule:evenodd;stroke:#ffffff;stroke-width:0.2;stroke-linecap:butt;stroke-linejoin:miter;stroke-miterlimit:4;stroke-dasharray:none;stroke-opacity:1;fill-opacity:1"
       d="m 4.9438477,1049.3959 0.1464844,-1.3184 1.2451172,-0.8423 2.0141601,-0.2197 1.6845706,1.2818 0.32959,1.1352 -0.4394535,0.9888 c 0,0 -1.0620118,0.5127 -1.2084961,0.5859 -0.1464844,0.073 -1.3916016,0.2564 -1.3916016,0.2564 l -1.4282227,-0.6592 z"
       id="path4153"
       inkscape:connector-curvature="0"
       sodipodi:nodetypes="ccccccccccc" />
  </g>
</svg>
