<?xml version="1.0" encoding="UTF-8" standalone="no"?>
<!-- Created with Inkscape (http://www.inkscape.org/) -->

<svg
   xmlns:dc="http://purl.org/dc/elements/1.1/"
   xmlns:cc="http://creativecommons.org/ns#"
   xmlns:rdf="http://www.w3.org/1999/02/22-rdf-syntax-ns#"
   xmlns:svg="http://www.w3.org/2000/svg"
   xmlns="http://www.w3.org/2000/svg"
   xmlns:sodipodi="http://sodipodi.sourceforge.net/DTD/sodipodi-0.dtd"
   xmlns:inkscape="http://www.inkscape.org/namespaces/inkscape"
   width="16"
   height="16"
   viewBox="0 0 4.2333332 4.2333335"
   version="1.1"
   id="svg8"
   inkscape:version="0.92.3 (2405546, 2018-03-11)"
   sodipodi:docname="pdf.svg">
  <defs
     id="defs2" />
  <sodipodi:namedview
     id="base"
     pagecolor="#ffffff"
     bordercolor="#666666"
     borderopacity="1.0"
     inkscape:pageopacity="0.0"
     inkscape:pageshadow="2"
     inkscape:zoom="16.502172"
     inkscape:cx="9.3974659"
     inkscape:cy="1.6836511"
     inkscape:document-units="px"
     inkscape:current-layer="layer1"
     showgrid="false"
     units="px"
     fit-margin-left="0.1"
     inkscape:pagecheckerboard="true"
     inkscape:window-width="1920"
     inkscape:window-height="1057"
     inkscape:window-x="1672"
     inkscape:window-y="-8"
     inkscape:window-maximized="1" />
  <metadata
     id="metadata5">
    <rdf:RDF>
      <cc:Work
         rdf:about="">
        <dc:format>image/svg+xml</dc:format>
        <dc:type
           rdf:resource="http://purl.org/dc/dcmitype/StillImage" />
        <dc:title></dc:title>
      </cc:Work>
    </rdf:RDF>
  </metadata>
  <g
     inkscape:label="Layer 1"
     inkscape:groupmode="layer"
     id="layer1"
     transform="translate(0,-292.76665)">
    <path
       style="fill:#ffffff;fill-opacity:1;stroke:none;stroke-width:0.079375;stroke-linecap:butt;stroke-linejoin:miter;stroke-miterlimit:4;stroke-dasharray:none;stroke-opacity:1"
       d="m 2.6188967,293.03763 0.017006,0.74258 0.6688956,0.0114 z"
       id="path4529"
       inkscape:connector-curvature="0"
       sodipodi:nodetypes="cccc" />
    <path
       style="opacity:1;fill:#ffffff;fill-opacity:1;stroke:#000000;stroke-width:0.0008242;stroke-linecap:butt;stroke-linejoin:round;stroke-miterlimit:4;stroke-dasharray:none;stroke-opacity:1;paint-order:fill markers stroke"
       d="m 1.2974867,296.62413 c -0.1940545,-0.0251 -0.37425939,-0.17081 -0.4299632,-0.34779 -0.0148149,-0.047 -0.0156149,-0.11018 -0.0185576,-1.46393 l -0.00308,-1.41474 0.0346957,-0.0691 c 0.0627668,-0.12504 0.1635804,-0.22525 0.2820877,-0.28039 0.055171,-0.0257 0.058755,-0.0262 0.2176743,-0.0317 0.088869,-0.003 0.3485759,-0.006 0.577126,-0.006 l 0.4155457,-7.3e-4 0.00478,0.10043 c 0.00263,0.0552 0.00696,0.27197 0.00963,0.48163 0.00437,0.34301 0.00625,0.38257 0.018846,0.39475 0.012417,0.0121 0.063703,0.0145 0.456074,0.022 0.2431464,0.005 0.4440656,0.0104 0.4464872,0.0129 0.00243,0.002 -0.00131,0.48868 -0.00827,1.08064 -0.014112,1.19818 -0.010688,1.13821 -0.072242,1.26483 -0.053821,0.11071 -0.1551102,0.19337 -0.2941396,0.24003 l -0.066464,0.0223 -0.7581846,0.001 c -0.4170015,6.2e-4 -0.7824216,-0.002 -0.8120446,-0.006 z m -0.00829,-1.48221 v -0.13013 l 0.09322,-0.004 c 0.1356931,-0.006 0.22055,-0.0457 0.268535,-0.12651 0.021207,-0.0357 0.023552,-0.047 0.023552,-0.11408 0,-0.0685 -0.00197,-0.0776 -0.025135,-0.11464 -0.019232,-0.0308 -0.036604,-0.046 -0.07397,-0.0649 l -0.048835,-0.0248 -0.1891164,-0.003 -0.1891164,-0.003 v 0.3574 0.35739 h 0.070432 0.070432 z m 0.7658022,0.12163 c 0.07787,-0.0111 0.1464555,-0.0431 0.1877948,-0.0874 0.1020293,-0.10951 0.1276983,-0.31581 0.057083,-0.45876 -0.028607,-0.0579 -0.067685,-0.0953 -0.1284305,-0.12277 -0.063787,-0.029 -0.116312,-0.0357 -0.2743465,-0.0357 H 1.753226 v 0.35662 0.35662 l 0.1222209,-1.7e-4 c 0.067222,-8e-5 0.1480217,-0.004 0.1795557,-0.008 z m 0.5663953,-0.137 0.00226,-0.14142 H 2.785039 2.9464237 v -0.0574 -0.0574 H 2.784854 2.6232738 v -0.0984 -0.0984 h 0.190582 0.1905819 v -0.0574 -0.0574 H 2.7434233 2.4824089 v 0.35694 0.35695 l 0.068361,-0.002 0.068361,-0.002 z"
       id="path4551"
       inkscape:connector-curvature="0" />
    <path
       style="opacity:1;fill:#ffffff;fill-opacity:1;stroke:#000000;stroke-width:0.0030299;stroke-linecap:butt;stroke-linejoin:round;stroke-miterlimit:4;stroke-dasharray:none;stroke-opacity:1;paint-order:fill markers stroke"
       d="M 7.1558104,8.131046 V 7.2294976 l 0.2979089,0.011966 c 0.4036302,0.016212 0.5584341,0.092277 0.6828325,0.3355184 0.070205,0.1372741 0.090033,0.2220903 0.1023003,0.4375801 0.039336,0.6910141 -0.185468,0.9666457 -0.8179251,1.0028545 l -0.2651166,0.015178 z"
       id="path4553"
       inkscape:connector-curvature="0"
       transform="matrix(0.26458333,0,0,0.26458333,0,292.76665)" />
    <path
       style="opacity:1;fill:#ffffff;fill-opacity:1;stroke:#000000;stroke-width:0.0030299;stroke-linecap:butt;stroke-linejoin:round;stroke-miterlimit:4;stroke-dasharray:none;stroke-opacity:1;paint-order:fill markers stroke"
       d="M 4.9439803,7.6650884 V 7.2365456 h 0.2888141 c 0.3023528,0 0.472382,0.044761 0.5479156,0.1442419 0.022008,0.028986 0.040449,0.1300545 0.040979,0.2245966 0.00168,0.2991541 -0.1751014,0.429652 -0.6338525,0.4679104 l -0.2438562,0.020337 z"
       id="path4555"
       inkscape:connector-curvature="0"
       transform="matrix(0.26458333,0,0,0.26458333,0,292.76665)" />
  </g>
</svg>
